<?xml version="1.0" encoding="UTF-8" standalone="no"?>
<!-- Created with Inkscape (http://www.inkscape.org/) -->

<svg
   xmlns:dc="http://purl.org/dc/elements/1.1/"
   xmlns:cc="http://creativecommons.org/ns#"
   xmlns:rdf="http://www.w3.org/1999/02/22-rdf-syntax-ns#"
   xmlns:svg="http://www.w3.org/2000/svg"
   xmlns="http://www.w3.org/2000/svg"
   xmlns:sodipodi="http://sodipodi.sourceforge.net/DTD/sodipodi-0.dtd"
   xmlns:inkscape="http://www.inkscape.org/namespaces/inkscape"
   id="svg3004"
   version="1.1"
   inkscape:version="0.48.3.1 r9886"
   width="287.39999"
   height="129.57701"
   xml:space="preserve"
   sodipodi:docname="otc_logo.svg"><metadata
     id="metadata3010"><rdf:RDF><cc:Work
         rdf:about=""><dc:format>image/svg+xml</dc:format><dc:type
           rdf:resource="http://purl.org/dc/dcmitype/StillImage" /><dc:title></dc:title></cc:Work></rdf:RDF></metadata><defs
     id="defs3008"><clipPath
       clipPathUnits="userSpaceOnUse"
       id="clipPath3020"><path
         d="m 0,0 2527.64,0 0,1255 L 0,1255 0,0 z"
         id="path3022"
         inkscape:connector-curvature="0" /></clipPath></defs><sodipodi:namedview
     pagecolor="#ffffff"
     bordercolor="#666666"
     borderopacity="1"
     objecttolerance="10"
     gridtolerance="10"
     guidetolerance="10"
     inkscape:pageopacity="0"
     inkscape:pageshadow="2"
     inkscape:window-width="1657"
     inkscape:window-height="931"
     id="namedview3006"
     showgrid="false"
     inkscape:zoom="4.6906154"
     inkscape:cx="143.69751"
     inkscape:cy="65.102357"
     inkscape:window-x="72"
     inkscape:window-y="24"
     inkscape:window-maximized="0"
     inkscape:current-layer="g3012"
     fit-margin-top="0"
     fit-margin-left="0"
     fit-margin-right="0"
     fit-margin-bottom="0" /><g
     id="g3012"
     inkscape:groupmode="layer"
     inkscape:label="ink_ext_XXXXXX"
     transform="matrix(1.25,0,0,-1.25,-14.277497,142.91841)"><g
       id="g3014"
       transform="scale(0.1,0.1)"><g
         id="g3016"><g
           id="g3018"
           clip-path="url(#clipPath3020)"><path
             d="m 680.723,966.805 c 69.812,-27.535 119.195,-18.016 159.172,-16.543 61.183,2.25 110.46,-56.785 107.093,-119.313 -3.371,-62.511 -56.914,-112.328 -119.297,-107.101 -28.902,2.422 -63.296,3.406 -89.285,-36.289 -30.011,-45.848 -20.523,-80.946 -8.965,-108.457 13.629,-32.411 18.497,-66.434 11.875,-109.375 -4.269,-27.723 -12.918,-72.969 16.965,-101.622 C 794.977,332.922 829.414,342.609 856,340.207 918.344,334.57 966.453,283.438 963.098,220.922 959.723,158.41 906.309,110.461 843.793,113.82 c -59.441,3.211 -106.504,51.629 -107.231,110.149 -0.269,21.711 0.055,44.011 -33.007,80.367 -33.067,36.387 -71.551,26.281 -94.739,19.453 -41.589,-12.246 -77.238,-11.355 -126.875,4.688 -23.882,7.726 -62.097,13.359 -99.058,-19.668 C 345.93,275.773 342.551,239.859 340.777,213.988 336.492,151.531 284,103.531 221.48,106.898 158.965,110.27 111.02,163.68 114.387,226.211 c 2.843,52.668 40.84,97.031 90.609,105 30.59,4.894 79.414,1.387 116.945,36.953 56.028,53.098 36.875,100 39.989,147.148 6.328,95.899 70.636,170.352 171.218,180.817 38.954,4.055 100.883,4.488 149.68,46.187 41.684,35.625 42.442,96.84 39.848,117.207 -2.973,23.278 -18.715,47.618 -62.914,69.594 -40.574,20.172 -96.625,2.004 -127.465,-6.176 -92.692,-24.574 -155.195,39.786 -150.621,113.149 3.894,62.5 56.781,110.46 119.304,107.09 48.75,-2.63 88.375,-35.9 102.313,-79.88 9.344,-29.48 24.594,-75.663 77.43,-96.495"
             style="fill:#821b8f;fill-opacity:1;fill-rule:nonzero;stroke:none"
             id="path3024"
             inkscape:connector-curvature="0" /><path
             d="m 697.898,497.199 c -4.281,-79.523 -72.218,-140.527 -151.75,-136.23 -79.523,4.285 -140.507,72.234 -136.226,151.746 4.281,79.543 72.23,140.515 151.75,136.238 79.523,-4.297 140.516,-72.234 136.226,-151.754"
             style="fill:#ffffff;fill-opacity:1;fill-rule:nonzero;stroke:none"
             id="path3026"
             inkscape:connector-curvature="0" /><path
             d="m 547.191,380.324 c -68.828,3.711 -121.621,62.52 -117.91,131.356 1.77,32.804 17.926,29.316 26.93,-1.465 4.059,-13.867 16.273,-32.82 27.82,-45.645 13.59,-15.066 46.633,-28.777 66.125,-29.324 127.985,-3.496 65.867,-58.633 -2.965,-54.922"
             style="fill:#bcb9b7;fill-opacity:1;fill-rule:nonzero;stroke:none"
             id="path3028"
             inkscape:connector-curvature="0" /><path
             d="m 573.242,1025.76 c -2.328,-43.283 -39.304,-76.483 -82.582,-74.147 -43.281,2.328 -76.48,39.305 -74.152,82.597 2.34,43.28 39.312,76.47 82.594,74.13 43.281,-2.33 76.472,-39.3 74.14,-82.58"
             style="fill:#ffffff;fill-opacity:1;fill-rule:nonzero;stroke:none"
             id="path3030"
             inkscape:connector-curvature="0" /><path
             d="m 912.152,832.832 c -2.328,-43.281 -39.304,-76.469 -82.586,-74.144 -43.277,2.335 -76.476,39.316 -74.14,82.589 2.328,43.282 39.316,76.485 82.594,74.149 43.281,-2.328 76.468,-39.313 74.132,-82.594"
             style="fill:#ffffff;fill-opacity:1;fill-rule:nonzero;stroke:none"
             id="path3032"
             inkscape:connector-curvature="0" /><path
             d="m 305.945,215.879 c -2.336,-43.289 -39.304,-76.481 -82.59,-74.149 -43.281,2.321 -76.468,39.309 -74.144,82.598 2.332,43.27 39.312,76.465 82.601,74.141 43.27,-2.336 76.465,-39.317 74.133,-82.59"
             style="fill:#ffffff;fill-opacity:1;fill-rule:nonzero;stroke:none"
             id="path3034"
             inkscape:connector-curvature="0" /><path
             d="m 928.262,222.801 c -2.324,-43.281 -39.309,-76.492 -82.582,-74.153 -43.285,2.332 -76.485,39.321 -74.153,82.59 2.336,43.285 39.313,76.477 82.594,74.153 43.277,-2.332 76.481,-39.305 74.141,-82.59"
             style="fill:#ffffff;fill-opacity:1;fill-rule:nonzero;stroke:none"
             id="path3036"
             inkscape:connector-curvature="0" /><path
             d="m 554.867,619.598 c -1.758,-18.59 21.496,-2.981 65.547,-30.993 43.609,-27.734 52.106,-52.031 52.106,-52.031 0,0 -2.301,27.586 -37.332,62.598 -25.075,25.066 -78.172,43.297 -80.321,20.426"
             style="fill:#959596;fill-opacity:1;fill-rule:nonzero;stroke:none"
             id="path3038"
             inkscape:connector-curvature="0" /><path
             d="m 842.66,899.715 c -0.742,-7.899 9.133,-1.266 27.844,-13.176 18.523,-11.777 22.129,-22.098 22.129,-22.098 0,0 -0.977,11.723 -15.856,26.582 -10.648,10.649 -33.199,18.387 -34.117,8.692"
             style="fill:#959596;fill-opacity:1;fill-rule:nonzero;stroke:none"
             id="path3040"
             inkscape:connector-curvature="0" /><path
             d="m 858.77,289.668 c -0.747,-7.879 9.136,-1.258 27.832,-13.152 18.531,-11.797 22.136,-22.118 22.136,-22.118 0,0 -0.984,11.735 -15.851,26.598 -10.653,10.656 -33.199,18.379 -34.117,8.672"
             style="fill:#959596;fill-opacity:1;fill-rule:nonzero;stroke:none"
             id="path3042"
             inkscape:connector-curvature="0" /><path
             d="m 236.441,282.746 c -0.738,-7.891 9.141,-1.262 27.852,-13.176 18.519,-11.765 22.121,-22.101 22.121,-22.101 0,0 -0.976,11.73 -15.848,26.593 -10.648,10.645 -33.207,18.399 -34.125,8.684"
             style="fill:#959596;fill-opacity:1;fill-rule:nonzero;stroke:none"
             id="path3044"
             inkscape:connector-curvature="0" /><path
             d="m 503.75,1092.63 c -0.742,-7.89 9.133,-1.27 27.836,-13.17 18.531,-11.77 22.141,-22.1 22.141,-22.1 0,0 -0.989,11.73 -15.86,26.58 -10.648,10.66 -33.199,18.4 -34.117,8.69"
             style="fill:#959596;fill-opacity:1;fill-rule:nonzero;stroke:none"
             id="path3046"
             inkscape:connector-curvature="0" /><path
             d="m 829.797,769.902 c -37.145,2.008 -65.625,33.731 -63.629,70.879 0.957,17.707 9.668,15.817 14.52,-0.773 2.199,-7.5 8.789,-17.711 15.031,-24.637 7.324,-8.137 25.148,-15.547 35.664,-15.824 69.055,-1.891 35.547,-31.641 -1.586,-29.645"
             style="fill:#bcb9b7;fill-opacity:1;fill-rule:nonzero;stroke:none"
             id="path3048"
             inkscape:connector-curvature="0" /><path
             d="m 845.895,159.871 c -37.141,2 -65.622,33.731 -63.622,70.879 0.957,17.699 9.676,15.809 14.524,-0.789 2.195,-7.492 8.785,-17.699 15.023,-24.621 7.321,-8.129 25.153,-15.539 35.676,-15.84 69.051,-1.879 35.539,-31.629 -1.601,-29.629"
             style="fill:#bcb9b7;fill-opacity:1;fill-rule:nonzero;stroke:none"
             id="path3050"
             inkscape:connector-curvature="0" /><path
             d="m 223.574,152.941 c -37.133,2 -65.621,33.739 -63.613,70.879 0.945,17.7 9.668,15.821 14.519,-0.781 2.192,-7.488 8.782,-17.711 15.012,-24.641 7.332,-8.128 25.16,-15.539 35.688,-15.82 69.039,-1.879 35.535,-31.637 -1.606,-29.637"
             style="fill:#bcb9b7;fill-opacity:1;fill-rule:nonzero;stroke:none"
             id="path3052"
             inkscape:connector-curvature="0" /><path
             d="m 490.875,962.824 c -37.148,2.008 -65.633,33.731 -63.629,70.886 0.961,17.69 9.684,15.81 14.527,-0.79 2.192,-7.49 8.786,-17.71 15.02,-24.63 7.328,-8.14 25.16,-15.54 35.672,-15.821 69.055,-1.883 35.547,-31.641 -1.59,-29.645"
             style="fill:#bcb9b7;fill-opacity:1;fill-rule:nonzero;stroke:none"
             id="path3054"
             inkscape:connector-curvature="0" /><path
             d="m 871.445,543.957 21.1602,0 0,111.512 -21.1602,0 0,-111.512 z"
             style="fill:#5b5c61;fill-opacity:1;fill-rule:nonzero;stroke:none"
             id="path3056"
             inkscape:connector-curvature="0" /><path
             d="m 1015.9,655.469 0,-111.512 -35.873,0 -31.863,61.191 c -1.578,3.047 -4.062,8.387 -7.434,16.004 l -3.597,8.012 -3.512,8.004 -0.812,0 0.32,-7.352 0.254,-7.277 0.164,-14.609 0,-63.973 -21.164,0 0,111.512 35.863,0 29,-56.531 c 2.563,-5.012 5.527,-11.075 8.906,-18.215 l 4.243,-9.071 4.257,-9.152 0.735,0 -0.25,7.199 -0.239,7.188 -0.164,14.375 0,64.207 21.166,0"
             style="fill:#5b5c61;fill-opacity:1;fill-rule:nonzero;stroke:none"
             id="path3058"
             inkscape:connector-curvature="0" /><path
             d="m 1079.94,636.516 0,-92.559 -21.16,0 0,92.559 -32.18,0 0,18.953 86.68,0 0,-18.953 -33.34,0"
             style="fill:#5b5c61;fill-opacity:1;fill-rule:nonzero;stroke:none"
             id="path3060"
             inkscape:connector-curvature="0" /><path
             d="m 1142.92,637.668 0,-28.77 52.29,0 0,-15.597 -52.29,0 0,-31.531 55.64,0 0,-17.813 -76.78,0 0,111.512 76.29,0 0,-17.801 -55.15,0"
             style="fill:#5b5c61;fill-opacity:1;fill-rule:nonzero;stroke:none"
             id="path3062"
             inkscape:connector-curvature="0" /><path
             d="m 1235.5,655.469 0,-92.559 52.28,0 0,-18.953 -73.44,0 0,111.512 21.16,0"
             style="fill:#5b5c61;fill-opacity:1;fill-rule:nonzero;stroke:none"
             id="path3064"
             inkscape:connector-curvature="0" /><path
             d="m 1385.01,638.316 c -14.22,0 -22.53,-1.824 -24.93,-5.472 -2.39,-3.653 -3.59,-16.282 -3.59,-37.903 0,-16.023 1.41,-25.652 4.21,-28.925 2.8,-3.27 11.07,-4.903 24.79,-4.903 13.12,0 21,1.836 23.61,5.508 2.62,3.684 3.93,14.844 3.93,33.469 0,18.66 -1.24,29.711 -3.72,33.113 -2.47,3.41 -10.58,5.113 -24.3,5.113 z m 1.63,18.137 c 20.26,0 33.3,-3.367 39.13,-10.09 5.82,-6.726 8.74,-21.773 8.74,-45.133 0,-25.546 -2.93,-41.648 -8.78,-48.281 -5.85,-6.648 -20.04,-9.969 -42.52,-9.969 -20.27,0 -33.37,3.282 -39.3,9.844 -5.93,6.563 -8.9,20.996 -8.9,43.348 0,26.562 2.91,43.258 8.74,50.066 5.83,6.809 20.13,10.215 42.89,10.215"
             style="fill:#5b5c61;fill-opacity:1;fill-rule:nonzero;stroke:none"
             id="path3066"
             inkscape:connector-curvature="0" /><path
             d="m 1469.97,597.793 24.11,0 c 9.58,0 15.66,1.105 18.25,3.312 2.58,2.207 3.88,7.411 3.88,15.633 0,9.43 -1.07,15.274 -3.23,17.532 -2.15,2.261 -7.74,3.398 -16.78,3.398 l -26.23,0 0,-39.875 z m -21.17,-53.836 0,111.512 50.5,0 c 15.08,0 25.26,-2.621 30.51,-7.879 5.26,-5.258 7.88,-15.402 7.88,-30.442 0,-14.921 -2.5,-24.832 -7.5,-29.726 -5.02,-4.902 -15.16,-7.352 -30.4,-7.352 l -4.9,-0.09 -24.92,0 0,-36.023 -21.17,0"
             style="fill:#5b5c61;fill-opacity:1;fill-rule:nonzero;stroke:none"
             id="path3068"
             inkscape:connector-curvature="0" /><path
             d="m 1570.13,637.668 0,-28.77 52.29,0 0,-15.597 -52.29,0 0,-31.531 55.64,0 0,-17.813 -76.8,0 0,111.512 76.31,0 0,-17.801 -55.15,0"
             style="fill:#5b5c61;fill-opacity:1;fill-rule:nonzero;stroke:none"
             id="path3070"
             inkscape:connector-curvature="0" /><path
             d="m 1745.04,655.469 0,-111.512 -35.86,0 -31.87,61.191 c -1.57,3.047 -4.04,8.387 -7.42,16.004 l -3.6,8.012 -3.52,8.004 -0.81,0 0.33,-7.352 0.24,-7.277 0.16,-14.609 0,-63.973 -21.16,0 0,111.512 35.87,0 29.01,-56.531 c 2.55,-5.012 5.53,-11.075 8.9,-18.215 l 4.25,-9.071 4.24,-9.152 0.74,0 -0.24,7.199 -0.24,7.188 -0.17,14.375 0,64.207 21.15,0"
             style="fill:#5b5c61;fill-opacity:1;fill-rule:nonzero;stroke:none"
             id="path3072"
             inkscape:connector-curvature="0" /><path
             d="m 1889.25,622.961 -20.68,0 c -0.1,1.023 -0.15,1.797 -0.15,2.285 -0.5,6.258 -1.88,10.195 -4.18,11.805 -2.28,1.601 -7.67,2.406 -16.17,2.406 -10.02,0 -16.58,-0.922 -19.66,-2.777 -3.07,-1.856 -4.6,-5.742 -4.6,-11.68 0,-7.031 1.24,-11.258 3.75,-12.664 2.5,-1.418 10.78,-2.512 24.83,-3.274 16.62,-0.925 27.36,-3.3 32.24,-7.109 4.88,-3.808 7.31,-11.738 7.31,-23.758 0,-14.824 -2.86,-24.394 -8.58,-28.722 -5.72,-4.336 -18.32,-6.493 -37.82,-6.493 -17.55,0 -29.18,2.118 -34.92,6.368 -5.76,4.246 -8.62,12.851 -8.62,25.82 l -0.09,4.082 20.59,0 0.08,-2.363 c 0,-7.793 1.36,-12.559 4.09,-14.297 2.72,-1.75 10.15,-2.629 22.29,-2.629 9.49,0 15.53,1.016 18.15,3.039 2.61,2 3.91,6.66 3.91,13.965 0,5.39 -0.99,8.973 -2.98,10.742 -1.99,1.777 -6.27,2.84 -12.86,3.231 l -11.69,0.722 c -17.64,1.047 -28.91,3.488 -33.82,7.356 -4.9,3.875 -7.36,12.175 -7.36,24.922 0,13.015 2.96,21.687 8.88,26.019 5.9,4.332 17.71,6.496 35.41,6.496 16.78,0 28.07,-1.984 33.9,-5.965 5.83,-3.972 8.75,-11.738 8.75,-23.285 l 0,-4.242"
             style="fill:#5b5c61;fill-opacity:1;fill-rule:nonzero;stroke:none"
             id="path3074"
             inkscape:connector-curvature="0" /><path
             d="m 1951.33,638.316 c -14.21,0 -22.52,-1.824 -24.91,-5.472 -2.41,-3.653 -3.6,-16.282 -3.6,-37.903 0,-16.023 1.4,-25.652 4.21,-28.925 2.8,-3.27 11.07,-4.903 24.8,-4.903 13.12,0 20.99,1.836 23.6,5.508 2.62,3.684 3.93,14.844 3.93,33.469 0,18.66 -1.24,29.711 -3.72,33.113 -2.49,3.41 -10.58,5.113 -24.31,5.113 z m 1.64,18.137 c 20.26,0 33.3,-3.367 39.12,-10.09 5.84,-6.726 8.75,-21.773 8.75,-45.133 0,-25.546 -2.93,-41.648 -8.78,-48.281 -5.86,-6.648 -20.03,-9.969 -42.53,-9.969 -20.26,0 -33.35,3.282 -39.29,9.844 -5.94,6.563 -8.91,20.996 -8.91,43.348 0,26.562 2.92,43.258 8.74,50.066 5.84,6.809 20.13,10.215 42.9,10.215"
             style="fill:#5b5c61;fill-opacity:1;fill-rule:nonzero;stroke:none"
             id="path3076"
             inkscape:connector-curvature="0" /><path
             d="m 2086.88,655.469 21.15,0 0,-74.18 c 0,-15.516 -2.99,-25.789 -8.95,-30.801 -5.96,-5.008 -18.15,-7.508 -36.56,-7.508 -19.44,0 -32.19,2.364 -38.23,7.098 -6.04,4.746 -9.07,14.738 -9.07,29.992 l 0,75.399 21.16,0 0,-75.399 c 0,-8.222 1.47,-13.449 4.42,-15.644 2.93,-2.207 9.85,-3.313 20.74,-3.313 11.17,0 18.18,1.114 21.04,3.352 2.86,2.226 4.3,7.695 4.3,16.426 l 0,74.578"
             style="fill:#5b5c61;fill-opacity:1;fill-rule:nonzero;stroke:none"
             id="path3078"
             inkscape:connector-curvature="0" /><path
             d="m 2148.72,599.348 30.38,0 c 7.25,0 12.06,1.289 14.42,3.875 2.38,2.578 3.56,7.773 3.56,15.566 0,7.957 -1.03,13.086 -3.06,15.399 -2.04,2.312 -6.53,3.48 -13.44,3.48 l -31.86,0 0,-38.32 z m -21.17,-55.391 0,111.512 54.99,0 c 13.67,0 23.09,-2.367 28.27,-7.102 5.17,-4.738 7.75,-13.316 7.75,-25.75 0,-11.258 -1.29,-18.972 -3.87,-23.113 -2.59,-4.133 -7.89,-7.004 -15.9,-8.566 l 0,-0.743 c 12.36,-0.75 18.55,-7.988 18.55,-21.648 l 0,-24.59 -21.16,0 0,20.352 c 0,11.484 -5.66,17.234 -16.99,17.234 l -30.47,0 0,-37.586 -21.17,0"
             style="fill:#5b5c61;fill-opacity:1;fill-rule:nonzero;stroke:none"
             id="path3080"
             inkscape:connector-curvature="0" /><path
             d="m 2304.26,583.742 21.24,0 0,-3.84 c 0,-15.515 -2.82,-25.554 -8.49,-30.105 -5.67,-4.551 -18.19,-6.817 -37.58,-6.817 -22.01,0 -35.54,3.582 -40.61,10.782 -5.06,7.195 -7.59,26.406 -7.59,57.676 0,18.402 3.43,30.515 10.29,36.316 6.87,5.797 21.21,8.699 43.06,8.699 15.9,0 26.52,-2.383 31.86,-7.148 5.33,-4.766 8,-14.231 8,-28.407 l 0.09,-2.519 -21.24,0 0,2.863 c 0,7.297 -1.39,11.961 -4.13,14.008 -2.75,2.047 -9.03,3.066 -18.83,3.066 -13.13,0 -21.01,-1.609 -23.65,-4.82 -2.65,-3.215 -3.97,-12.754 -3.97,-28.601 0,-21.348 1.19,-33.977 3.55,-37.903 2.38,-3.914 10.04,-5.879 23,-5.879 10.52,0 17.34,1.086 20.48,3.274 3.12,2.168 4.69,6.961 4.69,14.375 l -0.17,4.98"
             style="fill:#5b5c61;fill-opacity:1;fill-rule:nonzero;stroke:none"
             id="path3082"
             inkscape:connector-curvature="0" /><path
             d="m 2357.78,637.668 0,-28.77 52.29,0 0,-15.597 -52.29,0 0,-31.531 55.64,0 0,-17.813 -76.8,0 0,111.512 76.3,0 0,-17.801 -55.14,0"
             style="fill:#5b5c61;fill-opacity:1;fill-rule:nonzero;stroke:none"
             id="path3084"
             inkscape:connector-curvature="0" /><path
             d="m 918.953,488.965 0,-96.934 -12.215,0 0,96.934 -35.293,0 0,11.347 82.493,0 0,-11.347 -34.985,0"
             style="fill:#959596;fill-opacity:1;fill-rule:nonzero;stroke:none"
             id="path3086"
             inkscape:connector-curvature="0" /><path
             d="m 972.656,490 0,-36.883 54.974,0 0,-10.312 -54.974,0 0,-40.461 57.354,0 0,-10.313 -69.572,0 0,108.281 69.572,0 0,-10.312 -57.354,0"
             style="fill:#959596;fill-opacity:1;fill-rule:nonzero;stroke:none"
             id="path3088"
             inkscape:connector-curvature="0" /><path
             d="m 1116.71,428.203 12.14,0 0,-4.121 c 0,-14.754 -2.51,-23.973 -7.54,-27.644 -5.02,-3.684 -17.66,-5.52 -37.91,-5.52 -18.15,0 -29.67,3.242 -34.59,9.719 -4.92,6.484 -7.37,21.726 -7.37,45.73 0,18.77 0.54,30.578 1.66,35.422 1.11,4.832 4.28,9.16 9.52,12.969 6.13,4.441 19.38,6.66 39.73,6.66 13.81,0 23.1,-2.141 27.89,-6.426 4.79,-4.277 7.18,-12.558 7.18,-24.824 l 0.08,-2.941 -12.14,0 -0.08,3.339 c 0,8.723 -1.41,14.329 -4.24,16.817 -2.83,2.48 -9.21,3.722 -19.16,3.722 -17.45,0 -28.11,-1.457 -31.97,-4.355 -3.86,-2.91 -5.79,-10.977 -5.79,-24.199 0,-30.41 1.3,-48.223 3.89,-53.469 2.6,-5.234 11.45,-7.852 26.57,-7.852 14.38,0 23.37,1.145 26.93,3.418 3.58,2.266 5.36,7.981 5.36,17.129 l -0.16,6.426"
             style="fill:#959596;fill-opacity:1;fill-rule:nonzero;stroke:none"
             id="path3090"
             inkscape:connector-curvature="0" /><path
             d="m 1230.38,500.312 0,-108.281 -12.22,0 0,50.215 -63.3,0 0,-50.215 -12.21,0 0,108.281 12.21,0 0,-47.753 63.3,0 0,47.753 12.22,0"
             style="fill:#959596;fill-opacity:1;fill-rule:nonzero;stroke:none"
             id="path3092"
             inkscape:connector-curvature="0" /><path
             d="m 1343.42,500.312 0,-108.281 -20.07,0 -45.37,73.692 -7.37,12.14 -3.66,6.024 -3.65,6.035 -0.31,0 0.08,-4.051 0.07,-4.121 0,-89.719 -12.21,0 0,108.281 19.99,0 39.58,-64.57 10.31,-16.98 5.16,-8.41 5.07,-8.485 0.33,0 -0.08,4.043 -0.09,4.129 0,90.273 12.22,0"
             style="fill:#959596;fill-opacity:1;fill-rule:nonzero;stroke:none"
             id="path3094"
             inkscape:connector-curvature="0" /><path
             d="m 1403.54,491.105 c -17.12,0 -27.14,-1.906 -30.05,-5.703 -2.91,-3.808 -4.37,-16.875 -4.37,-39.191 0,-22.371 1.46,-35.457 4.37,-39.266 2.91,-3.808 12.93,-5.715 30.05,-5.715 17.19,0 27.24,1.907 30.15,5.715 2.91,3.809 4.37,16.895 4.37,39.266 l 0,7.062 -0.08,10.235 c 0,11.941 -2.01,19.539 -6.04,22.762 -4.01,3.222 -13.48,4.835 -28.4,4.835 z m 0.08,10.313 c 20.47,0 33.27,-2.988 38.4,-8.965 5.13,-5.976 7.7,-20.91 7.7,-44.816 0,-25.75 -2.46,-41.641 -7.39,-47.676 -4.91,-6.023 -17.82,-9.043 -38.71,-9.043 -20.78,0 -33.67,2.988 -38.66,8.965 -5,5.976 -7.5,21.418 -7.5,46.328 l 0,7.617 0.16,10.227 c 0,14.383 3.24,24.207 9.71,29.472 6.49,5.262 18.58,7.891 36.29,7.891"
             style="fill:#959596;fill-opacity:1;fill-rule:nonzero;stroke:none"
             id="path3096"
             inkscape:connector-curvature="0" /><path
             d="m 1475.89,500.312 0,-96.933 55.68,0 0,-11.348 -67.9,0 0,108.281 12.22,0"
             style="fill:#959596;fill-opacity:1;fill-rule:nonzero;stroke:none"
             id="path3098"
             inkscape:connector-curvature="0" /><path
             d="m 1581.94,491.105 c -17.13,0 -27.15,-1.906 -30.06,-5.703 -2.91,-3.808 -4.36,-16.875 -4.36,-39.191 0,-22.371 1.45,-35.457 4.36,-39.266 2.91,-3.808 12.93,-5.715 30.06,-5.715 17.19,0 27.24,1.907 30.15,5.715 2.91,3.809 4.37,16.895 4.37,39.266 l 0,7.062 -0.08,10.235 c 0,11.941 -2.01,19.539 -6.04,22.762 -4.01,3.222 -13.48,4.835 -28.4,4.835 z m 0.08,10.313 c 20.47,0 33.27,-2.988 38.4,-8.965 5.13,-5.976 7.7,-20.91 7.7,-44.816 0,-25.75 -2.47,-41.641 -7.39,-47.676 -4.91,-6.023 -17.82,-9.043 -38.71,-9.043 -20.78,0 -33.67,2.988 -38.66,8.965 -5,5.976 -7.5,21.418 -7.5,46.328 l 0,7.617 0.16,10.227 c 0,14.383 3.24,24.207 9.71,29.472 6.49,5.262 18.58,7.891 36.29,7.891"
             style="fill:#959596;fill-opacity:1;fill-rule:nonzero;stroke:none"
             id="path3100"
             inkscape:connector-curvature="0" /><path
             d="m 1680.7,445.891 46.41,0 c 0.2,-2.805 0.31,-6.739 0.31,-11.817 0,-19.512 -2.39,-31.582 -7.18,-36.211 -4.78,-4.629 -17.27,-6.945 -37.48,-6.945 -19.09,0 -31.35,2.746 -36.8,8.215 -5.45,5.469 -8.17,17.754 -8.17,36.844 l -0.08,15.949 0.08,9.597 c 0,16.016 3.03,26.672 9.09,31.965 6.05,5.282 18.25,7.93 36.6,7.93 18.4,0 30.27,-1.73 35.61,-5.195 5.34,-3.457 8.02,-11.192 8.02,-23.203 l 0,-4.122 -11.98,0 0,2.696 c 0,8.828 -1.81,14.297 -5.43,16.386 -3.63,2.079 -13.08,3.125 -28.36,3.125 -14.12,0 -22.95,-1.679 -26.5,-5.031 -3.54,-3.359 -5.31,-11.758 -5.31,-25.183 l -0.15,-14.368 0.07,-15.468 c 0,-13.641 1.97,-22.02 5.91,-25.145 3.94,-3.117 14.44,-4.68 31.53,-4.68 13.06,0 21.14,1.485 24.23,4.446 3.1,2.957 4.64,10.711 4.64,23.242 0,1.004 -0.2,3.223 -0.63,6.66 l -34.43,0 0,10.313"
             style="fill:#959596;fill-opacity:1;fill-rule:nonzero;stroke:none"
             id="path3102"
             inkscape:connector-curvature="0" /><path
             d="m 1824.6,500.312 -40.93,-63.066 0,-45.215 -12.21,0 0,45.215 -39.91,63.066 14.2,0 23.24,-36.57 4.45,-7.062 c 0.57,-0.848 1.32,-2.012 2.21,-3.485 l 2.15,-3.574 0.32,0 c 0.95,1.59 1.67,2.774 2.13,3.574 l 2.15,3.485 4.52,7.062 23.17,36.57 14.51,0"
             style="fill:#959596;fill-opacity:1;fill-rule:nonzero;stroke:none"
             id="path3104"
             inkscape:connector-curvature="0" /><path
             d="m 1945.64,428.203 12.14,0 0,-4.121 c 0,-14.754 -2.51,-23.973 -7.54,-27.644 -5.02,-3.684 -17.65,-5.52 -37.91,-5.52 -18.14,0 -29.66,3.242 -34.59,9.719 -4.92,6.484 -7.37,21.726 -7.37,45.73 0,18.77 0.55,30.578 1.66,35.422 1.11,4.832 4.29,9.16 9.52,12.969 6.14,4.441 19.39,6.66 39.74,6.66 13.81,0 23.09,-2.141 27.89,-6.426 4.78,-4.277 7.18,-12.558 7.18,-24.824 l 0.08,-2.941 -12.14,0 -0.08,3.339 c 0,8.723 -1.42,14.329 -4.25,16.817 -2.82,2.48 -9.21,3.722 -19.15,3.722 -17.45,0 -28.11,-1.457 -31.97,-4.355 -3.86,-2.91 -5.79,-10.977 -5.79,-24.199 0,-30.41 1.3,-48.223 3.88,-53.469 2.6,-5.234 11.46,-7.852 26.58,-7.852 14.38,0 23.36,1.145 26.93,3.418 3.57,2.266 5.35,7.981 5.35,17.129 l -0.16,6.426"
             style="fill:#959596;fill-opacity:1;fill-rule:nonzero;stroke:none"
             id="path3106"
             inkscape:connector-curvature="0" /><path
             d="m 1979.43,490 0,-36.883 54.97,0 0,-10.312 -54.97,0 0,-40.461 57.36,0 0,-10.313 -69.57,0 0,108.281 69.57,0 0,-10.312 -57.36,0"
             style="fill:#959596;fill-opacity:1;fill-rule:nonzero;stroke:none"
             id="path3108"
             inkscape:connector-curvature="0" /><path
             d="m 2144.99,500.312 0,-108.281 -20.07,0 -45.37,73.692 -7.38,12.14 -3.64,6.024 -3.66,6.035 -0.32,0 0.08,-4.051 0.09,-4.121 0,-89.719 -12.22,0 0,108.281 19.99,0 39.58,-64.57 10.31,-16.98 5.16,-8.41 5.08,-8.485 0.31,0 -0.08,4.043 -0.08,4.129 0,90.273 12.22,0"
             style="fill:#959596;fill-opacity:1;fill-rule:nonzero;stroke:none"
             id="path3110"
             inkscape:connector-curvature="0" /><path
             d="m 2203.37,488.965 0,-96.934 -12.22,0 0,96.934 -35.29,0 0,11.347 82.49,0 0,-11.347 -34.98,0"
             style="fill:#959596;fill-opacity:1;fill-rule:nonzero;stroke:none"
             id="path3112"
             inkscape:connector-curvature="0" /><path
             d="m 2257.07,490 0,-36.883 54.97,0 0,-10.312 -54.97,0 0,-40.461 57.35,0 0,-10.313 -69.57,0 0,108.281 69.57,0 0,-10.312 -57.35,0"
             style="fill:#959596;fill-opacity:1;fill-rule:nonzero;stroke:none"
             id="path3114"
             inkscape:connector-curvature="0" /><path
             d="m 2342.34,446.211 35.31,0 c 9.3,0 15.65,1.418 19.03,4.238 3.39,2.832 5.08,8.164 5.08,15.989 0,9.785 -1.26,16.152 -3.77,19.121 -2.51,2.957 -7.89,4.441 -16.14,4.441 l -39.51,0 0,-43.789 z m -12.21,-54.18 0,108.281 51.56,0 c 11.63,0 19.83,-2.304 24.59,-6.902 4.76,-4.601 7.14,-12.59 7.14,-23.957 0,-10 -1.3,-16.961 -3.89,-20.906 -2.59,-3.938 -7.54,-6.485 -14.83,-7.649 l 0,-0.242 c 11.47,-0.84 17.21,-7.824 17.21,-20.937 l 0,-27.688 -12.21,0 0,24.914 c 0,12.637 -5.48,18.953 -16.43,18.953 l -40.93,0 0,-43.867 -12.21,0"
             style="fill:#959596;fill-opacity:1;fill-rule:nonzero;stroke:none"
             id="path3116"
             inkscape:connector-curvature="0" /></g></g></g></g></svg>